#!OML:ASF F:\VICON\USERDATA\INSTALL\rory3\rory3.ASF
:FULLY-SPECIFIED
:DEGREES
978
root 15.5181 17.8836 -6.64473 -359.33 18.1868 6.64582
lowerback 11.4295 1.84572 -4.6994
upperback 0.970745 1.81282 -0.854339
thorax -5.51328 0.995848 1.45923
lowerneck -14.4742 -6.7125 -11.3975
upperneck 32.1093 -9.0755 7.95127
head 14.3704 -4.22622 3.68424
rclavicle -5.56597e-015 5.96354e-015
rhumerus -34.8656 -8.06007 -79.5088
rradius 33.6315
rwrist 3.34271
rhand -17.4563 10.3584
rfingers 7.12502
rthumb 8.79498 -19.4384
lclavicle -5.56597e-015 5.96354e-015
lhumerus -35.074 5.26596 76.4631
lradius 29.0744
lwrist -7.91298
lhand -17.5953 25.5331
lfingers 7.12502
lthumb 8.66089 55.3354
rfemur -17.7583 -3.81625 16.0117
rtibia 67.828
rfoot -5.14938 8.37138
rtoes 1.16006
lfemur -3.29015 -3.38599 -23.7944
ltibia 14.6974
lfoot -7.24037 -15.0587
ltoes 1.7932
979
root 15.5543 17.8885 -6.57533 -359.408 17.6439 6.55543
lowerback 11.4626 1.73981 -4.73124
upperback 0.97183 1.66816 -0.81401
thorax -5.52376 0.925983 1.54248
lowerneck -14.4685 -6.7301 -11.3688
upperneck 32.0992 -9.09034 7.86869
head 14.3596 -4.24281 3.6411
rclavicle 1.02871e-014 -1.98785e-015
rhumerus -35.0557 -8.17336 -79.3953
rradius 33.9801
rwrist 3.4224
rhand -17.3379 9.85357
rfingers 7.12502
rthumb 8.9093 -19.9383
lclavicle 1.02871e-014 -1.98785e-015
lhumerus -34.8775 5.27323 76.4653
lradius 29.0753
lwrist -7.48027
lhand -17.9876 25.4689
lfingers 7.12502
lthumb 8.2823 55.2865
rfemur -18.6009 -4.42613 16.0745
rtibia 68.0574
rfoot -5.79991 6.97272
rtoes 2.38605
lfemur -2.89597 -3.19803 -23.8083
ltibia 14.7045
lfoot -7.59975 -14.5731
ltoes 0.268223
980
root 15.5902 17.8925 -6.50858 -359.469 17.0525 6.47833
lowerback 11.4544 1.63945 -4.79671
upperback 1.00995 1.53165 -0.750562
thorax -5.47367 0.859551 1.66923
lowerneck -14.6762 -6.69793 -11.3226
upperneck 32.2018 -9.01493 7.77105
head 14.4338 -4.21503 3.60389
rclavicle 1.94312e-014 7.15625e-015
rhumerus -35.1117 -8.20942 -79.2704
rradius 34.2322
rwrist 3.4339
rhand -17.291 9.7596
rfingers 7.12502
rthumb 8.95456 -20.0304
lclavicle 1.94312e-014 7.15625e-015
lhumerus -34.6113 5.59484 76.3885
lradius 28.9707
lwrist -7.38466
lhand -18.1582 25.5062
lfingers 7.12502
lthumb 8.11762 55.3303
rfemur -19.4219 -4.90528 16.1499
rtibia 68.107
rfoot -6.54106 5.69526
rtoes 2.72366
lfemur -2.59379 -3.00562 -23.8322
ltibia 14.8363
lfoot -7.91933 -14.0357
ltoes -1.23814
981
root 15.6251 17.8898 -6.44477 -359.571 16.476 6.45902
lowerback 11.6103 1.56597 -4.901
upperback 1.00775 1.41455 -0.684619
thorax -5.55964 0.806657 1.81306
lowerneck -14.6799 -6.68187 -11.3635
upperneck 32.184 -8.97095 7.73058
head 14.421 -4.20896 3.60076
rclavicle -7.20594e-015 2.82274e-014
rhumerus -35.2131 -8.20106 -79.1203
rradius 34.391
rwrist 3.13352
rhand -17.4331 9.85726
rfingers 7.12502
rthumb 8.81741 -19.9385
lclavicle -7.20594e-015 2.82274e-014
lhumerus -34.4063 5.68604 76.461
lradius 28.9545
lwrist -7.19851
lhand -18.4227 25.5766
lfingers 7.12502
lthumb 7.86238 55.4104
rfemur -20.1925 -5.40509 16.1522
rtibia 68.029
rfoot -7.31616 4.57656
rtoes 2.6191
lfemur -2.32248 -2.7807 -23.9328
ltibia 15.1035
lfoot -8.38512 -13.4944
ltoes -2.47953
982
root 15.6601 17.8836 -6.37663 -359.652 15.8542 6.36932
lowerback 11.7025 1.5182 -4.8999
upperback 0.999004 1.34773 -0.636568
thorax -5.61683 0.77542 1.87217
lowerneck -14.6675 -6.70396 -11.4768
upperneck 32.1404 -9.01778 7.84796
head 14.4189 -4.23074 3.65896
rclavicle 9.39258e-015 -1.55052e-014
rhumerus -35.3233 -8.25987 -79.0446
rradius 34.473
rwrist 2.45557
rhand -17.6029 9.92792
rfingers 7.12502
rthumb 8.65353 -19.8747
lclavicle 9.39258e-015 -1.55052e-014
lhumerus -34.1079 5.72543 76.4979
lradius 28.9226
lwrist -7.05037
lhand -18.2208 25.6355
lfingers 7.12502
lthumb 8.0572 55.4619
rfemur -20.9446 -5.83808 16.2539
rtibia 67.8281
rfoot -8.03989 3.62843
rtoes 3.15757
lfemur -2.1302 -2.60993 -23.9695
ltibia 15.4617
lfoot -8.78338 -12.9176
ltoes -2.61978
983
root 15.6951 17.8754 -6.30769 -359.652 15.2319 6.30022
lowerback 11.7165 1.42364 -4.90451
upperback 0.955652 1.21899 -0.634734
thorax -5.66162 0.713733 1.89744
lowerneck -14.6515 -6.67968 -11.4425
upperneck 32.154 -9.02375 7.90499
head 14.423 -4.22525 3.67605
rclavicle 7.76254e-014 6.75868e-015
rhumerus -35.41 -8.14612 -79.1547
rradius 34.4966
rwrist 1.55186
rhand -17.7092 9.97039
rfingers 7.12502
rthumb 8.55099 -19.8365
lclavicle 7.76254e-014 6.75868e-015
lhumerus -33.9413 5.81866 76.4116
lradius 28.9947
lwrist -6.77533
lhand -17.939 25.4127
lfingers 7.12502
lthumb 8.32922 55.2285
rfemur -21.717 -6.17337 16.3839
rtibia 67.4749
rfoot -8.90147 2.63831
rtoes 2.28436
lfemur -2.0985 -2.43598 -24.0113
ltibia 15.9606
lfoot -9.07409 -12.3775
ltoes -1.68366
984
root 15.7301 17.8662 -6.24269 -359.665 14.5998 6.28677
lowerback 11.7368 1.32109 -4.94369
upperback 0.977864 1.07706 -0.634118
thorax -5.64017 0.644109 1.94389
lowerneck -14.6871 -6.68675 -11.4802
upperneck 32.1223 -9.05629 7.99026
head 14.4283 -4.23511 3.70973
rclavicle 4.13472e-014 -7.95139e-015
rhumerus -35.3057 -8.12339 -79.1869
rradius 34.4457
rwrist 1.31565
rhand -17.5879 9.48623
rfingers 7.12502
rthumb 8.66803 -20.3158
lclavicle 4.13472e-014 -7.95139e-015
lhumerus -33.6888 5.93783 76.3776
lradius 29.099
lwrist -6.39882
lhand -18.3052 24.6921
lfingers 7.12502
lthumb 7.97581 54.5216
rfemur -22.4349 -6.43359 16.449
rtibia 66.9442
rfoot -9.87397 1.70445
rtoes 0.568875
lfemur -2.09616 -2.12235 -24.1107
ltibia 16.5444
lfoot -9.5916 -11.8687
ltoes -1.7566
985
root 15.7627 17.8603 -6.17541 -359.668 13.9036 6.22545
lowerback 11.7147 1.27171 -4.97225
upperback 1.00402 1.01176 -0.598248
thorax -5.59664 0.611678 2.00926
lowerneck -14.7542 -6.72843 -11.4925
upperneck 32.0532 -9.1103 7.98694
head 14.4199 -4.26126 3.69599
rclavicle 2.81777e-014 1.31198e-014
rhumerus -35.2865 -8.17302 -79.111
rradius 34.5123
rwrist 1.37951
rhand -17.4853 9.14795
rfingers 7.12502
rthumb 8.767 -20.65
lclavicle 2.81777e-014 1.31198e-014
lhumerus -33.425 5.96157 76.4363
lradius 29.3241
lwrist -5.9829
lhand -18.5995 24.6984
lfingers 7.12502
lthumb 7.69169 54.5385
rfemur -23.1116 -6.58275 16.5902
rtibia 66.2242
rfoot -10.6045 0.863945
rtoes 0.335543
lfemur -2.05205 -1.83544 -24.1506
ltibia 17.0813
lfoot -10.2891 -11.2229
ltoes -2.88786
986
root 15.7931 17.8567 -6.10415 -359.656 13.2198 6.18696
lowerback 11.7039 1.25687 -5.01738
upperback 0.989965 0.986489 -0.588908
thorax -5.60461 0.600669 2.04872
lowerneck -14.7145 -6.76896 -11.5168
upperneck 31.9636 -9.20331 8.08266
head 14.3902 -4.29537 3.72051
rclavicle 2.5345e-014 -7.95139e-015
rhumerus -35.3906 -8.3207 -79.0092
rradius 34.5555
rwrist 1.48271
rhand -17.5289 9.72477
rfingers 7.12502
rthumb 8.72497 -20.0749
lclavicle 2.5345e-014 -7.95139e-015
lhumerus -33.2262 5.79643 76.5154
lradius 29.5983
lwrist -5.47128
lhand -18.6647 25.2304
lfingers 7.12502
lthumb 7.62884 55.0728
rfemur -23.7284 -6.77759 16.7126
rtibia 65.3671
rfoot -11.1957 0.106582
rtoes 0.961101
lfemur -1.9606 -1.68354 -24.2222
ltibia 17.5411
lfoot -10.775 -10.5886
ltoes -3.54288
987
root 15.8222 17.8485 -6.03788 -359.639 12.5351 6.24113
lowerback 11.7517 1.24577 -5.13211
upperback 1.00093 0.952749 -0.607118
thorax -5.6189 0.58661 2.09923
lowerneck -14.727 -6.82104 -11.5661
upperneck 31.914 -9.30967 8.19792
head 14.3952 -4.33443 3.75503
rclavicle -1.2275e-014 -5.96354e-015
rhumerus -35.2707 -8.59905 -78.8786
rradius 34.3297
rwrist 1.81036
rhand -17.624 10.1141
rfingers 7.12502
rthumb 8.63319 -19.6894
lclavicle -1.2275e-014 -5.96354e-015
lhumerus -32.9573 5.44622 76.6678
lradius 29.9506
lwrist -4.92958
lhand -18.8325 25.359
lfingers 7.12502
lthumb 7.46681 55.2072
rfemur -24.3634 -6.98509 16.7327
rtibia 64.4292
rfoot -11.6768 -0.414813
rtoes 2.35146
lfemur -1.8777 -1.51642 -24.4005
ltibia 17.9403
lfoot -11.0755 -10.0059
ltoes -3.67287
